STARTFONT 2.3
FONT -FontForge-Tangerine-Book-R-Normal--18-180-72-72-P-66-ISO10646-1
SIZE 18 72 72  2
FONTBOUNDINGBOX 30 20 -6 -5
COMMENT "Generated by fontforge, http://fontforge.sourceforge.net"
COMMENT "Copyright (c) 2010 by Toshi Omagari. All rights reserved."
STARTPROPERTIES 40
FOUNDRY "FontForge"
FAMILY_NAME "Tangerine"
WEIGHT_NAME "Book"
SLANT "R"
SETWIDTH_NAME "Normal"
ADD_STYLE_NAME ""
PIXEL_SIZE 18
POINT_SIZE 180
RESOLUTION_X 72
RESOLUTION_Y 72
SPACING "P"
AVERAGE_WIDTH 66
CHARSET_REGISTRY "ISO10646"
CHARSET_ENCODING "1"
FONTNAME_REGISTRY ""
CHARSET_COLLECTIONS "ISO10646-1"
BITS_PER_PIXEL 2
FONT_NAME "Tangerine-Regular"
FACE_NAME "Tangerine Regular"
COPYRIGHT "Copyright (c) 2010 by Toshi Omagari. All rights reserved."
FONT_VERSION "1.3"
FONT_ASCENT 13
FONT_DESCENT 5
UNDERLINE_POSITION -2
UNDERLINE_THICKNESS 1
X_HEIGHT 4
CAP_HEIGHT 11
RAW_ASCENT 750
RAW_DESCENT 250
NORM_SPACE 3
RELATIVE_WEIGHT 40
RELATIVE_SETWIDTH 50
SUPERSCRIPT_X 0
SUPERSCRIPT_Y 8
SUPERSCRIPT_SIZE 11
SUBSCRIPT_X 0
SUBSCRIPT_Y 2
SUBSCRIPT_SIZE 11
AVG_LOWERCASE_WIDTH 43
AVG_UPPERCASE_WIDTH 127
ENDPROPERTIES
CHARS 233
STARTCHAR space
ENCODING 32
SWIDTH 150 0
DWIDTH 3 0
BBX 1 1 0 0
BITMAP
00
ENDCHAR
STARTCHAR exclam
ENCODING 33
SWIDTH 189 0
DWIDTH 3 0
BBX 5 9 1 0
BITMAP
0140
0200
0500
0400
0400
1000
1000
0000
8000
ENDCHAR
STARTCHAR quotedbl
ENCODING 34
SWIDTH 214 0
DWIDTH 4 0
BBX 4 3 1 5
BITMAP
11
55
44
ENDCHAR
STARTCHAR numbersign
ENCODING 35
SWIDTH 289 0
DWIDTH 5 0
BBX 6 6 0 0
BITMAP
0540
0440
1FD0
1100
7D00
1000
ENDCHAR
STARTCHAR dollar
ENCODING 36
SWIDTH 269 0
DWIDTH 5 0
BBX 5 8 0 -1
BITMAP
0040
0540
0940
0800
0600
4200
A900
1000
ENDCHAR
STARTCHAR percent
ENCODING 37
SWIDTH 388 0
DWIDTH 7 0
BBX 7 8 0 -1
BITMAP
0004
2C10
5440
8150
0148
0444
1090
1000
ENDCHAR
STARTCHAR ampersand
ENCODING 38
SWIDTH 507 0
DWIDTH 9 0
BBX 9 9 0 0
BITMAP
01C000
015000
050000
040000
0A0280
220400
819000
909000
296A40
ENDCHAR
STARTCHAR quotesingle
ENCODING 39
SWIDTH 120 0
DWIDTH 2 0
BBX 2 2 1 5
BITMAP
20
40
ENDCHAR
STARTCHAR parenleft
ENCODING 40
SWIDTH 250 0
DWIDTH 5 0
BBX 5 14 1 -2
BITMAP
0040
0140
0100
0800
0800
2400
2000
2000
5000
5000
5000
5000
1000
1000
ENDCHAR
STARTCHAR parenright
ENCODING 41
SWIDTH 276 0
DWIDTH 5 0
BBX 4 13 1 -2
BITMAP
01
01
02
02
02
02
05
08
08
14
20
40
40
ENDCHAR
STARTCHAR asterisk
ENCODING 42
SWIDTH 188 0
DWIDTH 3 0
BBX 2 2 1 5
BITMAP
10
50
ENDCHAR
STARTCHAR plus
ENCODING 43
SWIDTH 301 0
DWIDTH 5 0
BBX 4 5 1 0
BITMAP
04
04
FE
10
10
ENDCHAR
STARTCHAR comma
ENCODING 44
SWIDTH 112 0
DWIDTH 2 0
BBX 2 2 0 -1
BITMAP
10
40
ENDCHAR
STARTCHAR hyphen
ENCODING 45
SWIDTH 245 0
DWIDTH 4 0
BBX 1 1 1 2
BITMAP
40
ENDCHAR
STARTCHAR period
ENCODING 46
SWIDTH 112 0
DWIDTH 2 0
BBX 2 1 0 0
BITMAP
50
ENDCHAR
STARTCHAR slash
ENCODING 47
SWIDTH 210 0
DWIDTH 4 0
BBX 8 12 -1 -1
BITMAP
0001
0004
0014
0010
0040
0040
0100
0100
0400
1400
1000
4000
ENDCHAR
STARTCHAR zero
ENCODING 48
SWIDTH 349 0
DWIDTH 6 0
BBX 5 6 1 0
BITMAP
1B40
1080
4080
8040
8100
6400
ENDCHAR
STARTCHAR one
ENCODING 49
SWIDTH 189 0
DWIDTH 3 0
BBX 3 6 1 0
BITMAP
BC
24
20
50
80
80
ENDCHAR
STARTCHAR two
ENCODING 50
SWIDTH 277 0
DWIDTH 5 0
BBX 5 6 0 0
BITMAP
0680
1080
0040
0100
1400
6A40
ENDCHAR
STARTCHAR three
ENCODING 51
SWIDTH 253 0
DWIDTH 5 0
BBX 6 9 -1 -3
BITMAP
0590
0020
0050
0640
0180
0080
0080
4240
B900
ENDCHAR
STARTCHAR four
ENCODING 52
SWIDTH 363 0
DWIDTH 7 0
BBX 7 9 1 0
BITMAP
0008
0060
0150
0480
1040
9210
6FD0
0600
0800
ENDCHAR
STARTCHAR five
ENCODING 53
SWIDTH 250 0
DWIDTH 5 0
BBX 6 9 -1 -3
BITMAP
02A0
0000
0400
0A00
0280
0080
0080
4600
B800
ENDCHAR
STARTCHAR six
ENCODING 54
SWIDTH 296 0
DWIDTH 5 0
BBX 7 9 1 0
BITMAP
01B4
0604
1400
2000
5600
8240
8200
8100
A400
ENDCHAR
STARTCHAR seven
ENCODING 55
SWIDTH 326 0
DWIDTH 6 0
BBX 7 9 0 -3
BITMAP
0FE4
1010
0010
0040
0100
0400
1400
6000
8000
ENDCHAR
STARTCHAR eight
ENCODING 56
SWIDTH 305 0
DWIDTH 5 0
BBX 7 9 0 0
BITMAP
0050
0114
0514
0250
0580
1090
2050
6040
2940
ENDCHAR
STARTCHAR nine
ENCODING 57
SWIDTH 304 0
DWIDTH 5 0
BBX 7 9 -1 -3
BITMAP
01A0
0524
0814
0820
0870
0B90
0040
4140
7900
ENDCHAR
STARTCHAR colon
ENCODING 58
SWIDTH 156 0
DWIDTH 3 0
BBX 3 5 0 0
BITMAP
14
00
00
00
50
ENDCHAR
STARTCHAR semicolon
ENCODING 59
SWIDTH 156 0
DWIDTH 3 0
BBX 3 6 0 -1
BITMAP
14
00
00
00
50
40
ENDCHAR
STARTCHAR less
ENCODING 60
SWIDTH 301 0
DWIDTH 5 0
BBX 4 4 1 1
BITMAP
01
15
90
14
ENDCHAR
STARTCHAR equal
ENCODING 61
SWIDTH 301 0
DWIDTH 5 0
BBX 5 3 0 1
BITMAP
2FC0
0000
7F80
ENDCHAR
STARTCHAR greater
ENCODING 62
SWIDTH 301 0
DWIDTH 5 0
BBX 3 2 2 2
BITMAP
90
14
ENDCHAR
STARTCHAR question
ENCODING 63
SWIDTH 285 0
DWIDTH 5 0
BBX 6 9 1 0
BITMAP
0190
0420
0020
0050
0100
1400
2000
0000
8000
ENDCHAR
STARTCHAR at
ENCODING 64
SWIDTH 492 0
DWIDTH 9 0
BBX 7 9 1 -2
BITMAP
0BE0
2418
52D4
8944
4448
55A8
8DE0
5000
1A50
ENDCHAR
STARTCHAR A
ENCODING 65
SWIDTH 996 0
DWIDTH 18 0
BBX 17 12 1 0
BITMAP
00001AA900
00004006C0
0000000640
0001001900
0000006100
0000004400
0000A10400
00006FF800
4000140800
4000401400
8005001840
6A50000A00
ENDCHAR
STARTCHAR B
ENCODING 66
SWIDTH 638 0
DWIDTH 11 0
BBX 12 13 0 0
BITMAP
000010
0015E4
00421D
010506
000802
000804
0014A0
002018
002008
004009
654008
190008
015550
ENDCHAR
STARTCHAR C
ENCODING 67
SWIDTH 557 0
DWIDTH 10 0
BBX 11 12 1 0
BITMAP
0055A0
010014
040000
200000
600000
900000
900000
900000
900000
600040
240140
065600
ENDCHAR
STARTCHAR D
ENCODING 68
SWIDTH 799 0
DWIDTH 14 0
BBX 15 12 0 0
BITMAP
005A9500
01002D00
01006740
000081C0
00008060
00014030
00020024
00060014
00080010
00040010
1AA00050
555A9500
ENDCHAR
STARTCHAR E
ENCODING 69
SWIDTH 494 0
DWIDTH 9 0
BBX 9 12 1 0
BITMAP
005640
010040
020000
028000
01E000
150000
100000
800000
C00000
C00100
900400
255400
ENDCHAR
STARTCHAR F
ENCODING 70
SWIDTH 626 0
DWIDTH 11 0
BBX 14 12 1 0
BITMAP
0016A400
00400BF0
00401800
00002000
00002000
00005000
002FF800
00008000
40014000
40010000
80040000
69500000
ENDCHAR
STARTCHAR G
ENCODING 71
SWIDTH 571 0
DWIDTH 10 0
BBX 14 15 -1 -3
BITMAP
00001B80
00019050
00060010
00080000
00200000
00200000
00600000
00600400
00601800
00242400
10002000
80005000
90004000
60010000
19540000
ENDCHAR
STARTCHAR H
ENCODING 72
SWIDTH 865 0
DWIDTH 16 0
BBX 20 13 1 0
BITMAP
0000000019
0016A40051
0040100100
0040800400
0001400400
0002002000
0002002000
06FFA99000
29055AE000
9008008000
8014008000
8010014000
654001D000
ENDCHAR
STARTCHAR I
ENCODING 73
SWIDTH 554 0
DWIDTH 10 0
BBX 12 12 1 0
BITMAP
00001A
0000A4
000214
000820
001420
001050
001080
000040
400500
800500
D06400
7F8000
ENDCHAR
STARTCHAR J
ENCODING 74
SWIDTH 634 0
DWIDTH 11 0
BBX 15 15 0 -3
BITMAP
000000A4
00000A40
00002440
00005040
00004100
00004200
00004100
00000400
01001400
10002000
50002000
80008000
80020000
90580000
2F900000
ENDCHAR
STARTCHAR K
ENCODING 75
SWIDTH 936 0
DWIDTH 17 0
BBX 17 12 1 0
BITMAP
0016A80680
0050141040
0040204000
0100510000
0100840000
0100940000
0000940000
0001480000
4001080000
8001060000
8004024000
695000A400
ENDCHAR
STARTCHAR L
ENCODING 76
SWIDTH 657 0
DWIDTH 12 0
BBX 13 12 0 0
BITMAP
00000B80
00002080
00004040
00014000
00020000
00020000
00050000
00080000
00080000
1A500000
55B50400
655BE400
ENDCHAR
STARTCHAR M
ENCODING 77
SWIDTH 1219 0
DWIDTH 22 0
BBX 22 12 1 0
BITMAP
00005AA40020
0001001A0190
000400080640
000000181600
000000646100
000000508400
500002220800
800004590800
800010541400
800040A01400
A00500901840
2AA000800A00
ENDCHAR
STARTCHAR N
ENCODING 78
SWIDTH 990 0
DWIDTH 18 0
BBX 22 12 1 0
BITMAP
0016940001A0
00001C000510
00000A000400
000006801000
000014901000
000010604000
000010244000
400040184000
400040090000
8001000A0000
901800060000
2E9000010000
ENDCHAR
STARTCHAR O
ENCODING 79
SWIDTH 606 0
DWIDTH 11 0
BBX 11 12 1 0
BITMAP
006F80
0240A0
080024
100018
100008
500008
800014
800010
900010
600080
290600
0BE400
ENDCHAR
STARTCHAR P
ENCODING 80
SWIDTH 783 0
DWIDTH 14 0
BBX 15 13 1 0
BITMAP
00000100
00015B80
000508B0
00002024
00002018
00005008
00004014
00018010
00005540
40010000
40000000
80000000
69400000
ENDCHAR
STARTCHAR Q
ENCODING 81
SWIDTH 563 0
DWIDTH 10 0
BBX 13 15 1 -3
BITMAP
00554000
00009000
04002000
10003000
10002000
20002000
20005000
20008000
19020000
00040000
01500000
6D000000
01900000
002E4140
0002FD00
ENDCHAR
STARTCHAR R
ENCODING 82
SWIDTH 854 0
DWIDTH 15 0
BBX 14 13 1 0
BITMAP
00000100
00016F40
000421D0
00005060
00008020
00008050
00014000
00022000
00022000
40051400
40040800
80100900
69400290
ENDCHAR
STARTCHAR S
ENCODING 83
SWIDTH 480 0
DWIDTH 9 0
BBX 9 12 1 0
BITMAP
002E00
008140
008140
008000
005000
002000
001800
000800
400500
800400
800400
695000
ENDCHAR
STARTCHAR T
ENCODING 84
SWIDTH 577 0
DWIDTH 10 0
BBX 14 12 1 0
BITMAP
002FF940
01401690
01000400
04001000
04001000
00008000
00008000
00014000
40020000
80050000
80140000
6A400000
ENDCHAR
STARTCHAR U
ENCODING 85
SWIDTH 752 0
DWIDTH 14 0
BBX 14 12 1 0
BITMAP
05A90020
10040050
00100080
40100140
40400200
41400600
01000900
02001800
02005800
02004800
03460840
01F40A00
ENDCHAR
STARTCHAR V
ENCODING 86
SWIDTH 661 0
DWIDTH 12 0
BBX 13 12 1 0
BITMAP
06900A00
10241240
10080140
40080140
00040100
00050100
00040400
00080000
00085000
00094000
00090000
00140000
ENDCHAR
STARTCHAR W
ENCODING 87
SWIDTH 822 0
DWIDTH 15 0
BBX 16 12 1 0
BITMAP
06D00009
10300402
40142002
40146001
0004A004
00052004
00152020
00142040
00142140
00202500
00502800
00402000
ENDCHAR
STARTCHAR X
ENCODING 88
SWIDTH 813 0
DWIDTH 15 0
BBX 14 12 1 0
BITMAP
001C01B0
00190510
00061010
00025000
00024000
00020000
00024000
00058000
0004C000
40106000
80403450
B9000B80
ENDCHAR
STARTCHAR Y
ENCODING 89
SWIDTH 662 0
DWIDTH 12 0
BBX 16 14 0 -2
BITMAP
00064005
00114008
00014018
00020020
00020060
00050080
01080240
14080600
50082400
800B9000
80001000
90004000
74050000
1FE40000
ENDCHAR
STARTCHAR Z
ENCODING 90
SWIDTH 625 0
DWIDTH 11 0
BBX 12 12 1 0
BITMAP
002F91
00506D
000000
000000
000000
000000
000000
000000
000000
000010
2A4040
46FE00
ENDCHAR
STARTCHAR bracketleft
ENCODING 91
SWIDTH 318 0
DWIDTH 6 0
BBX 7 13 1 -2
BITMAP
0254
0200
0200
0500
0900
0800
0800
1400
2400
2000
2000
6000
6400
ENDCHAR
STARTCHAR backslash
ENCODING 92
SWIDTH 212 0
DWIDTH 4 0
BBX 3 12 0 -1
BITMAP
40
10
10
10
10
10
10
04
04
04
04
04
ENDCHAR
STARTCHAR bracketright
ENCODING 93
SWIDTH 339 0
DWIDTH 6 0
BBX 7 13 0 -2
BITMAP
0064
0024
0020
0020
0050
0050
0080
0080
0140
0140
0200
0200
5600
ENDCHAR
STARTCHAR asciicircum
ENCODING 94
SWIDTH 272 0
DWIDTH 5 0
BBX 4 4 1 3
BITMAP
08
28
55
41
ENDCHAR
STARTCHAR underscore
ENCODING 95
SWIDTH 356 0
DWIDTH 6 0
BBX 6 1 0 -1
BITMAP
AA50
ENDCHAR
STARTCHAR grave
ENCODING 96
SWIDTH 155 0
DWIDTH 3 0
BBX 3 2 0 5
BITMAP
50
04
ENDCHAR
STARTCHAR a
ENCODING 97
SWIDTH 294 0
DWIDTH 5 0
BBX 5 5 0 0
BITMAP
0B80
2440
5200
5600
7640
ENDCHAR
STARTCHAR b
ENCODING 98
SWIDTH 247 0
DWIDTH 4 0
BBX 10 14 0 0
BITMAP
000590
001000
000000
000000
010000
010000
040000
040000
140000
1B0000
254000
210000
510000
640000
ENDCHAR
STARTCHAR c
ENCODING 99
SWIDTH 203 0
DWIDTH 4 0
BBX 4 5 0 0
BITMAP
01
10
50
50
64
ENDCHAR
STARTCHAR d
ENCODING 100
SWIDTH 285 0
DWIDTH 5 0
BBX 12 14 0 0
BITMAP
000019
000040
000100
000000
000400
001000
001000
005000
008000
0A8000
214000
524000
560000
664000
ENDCHAR
STARTCHAR e
ENCODING 101
SWIDTH 206 0
DWIDTH 4 0
BBX 4 5 0 0
BITMAP
1A
11
50
50
64
ENDCHAR
STARTCHAR f
ENCODING 102
SWIDTH 156 0
DWIDTH 3 0
BBX 15 18 -5 -4
BITMAP
000001A4
00000404
00000400
00001000
00004000
00008000
00014000
00020000
00020000
001F9000
00050000
00080000
00080000
00100000
00100000
00400000
01000000
94000000
ENDCHAR
STARTCHAR g
ENCODING 103
SWIDTH 210 0
DWIDTH 4 0
BBX 6 9 -2 -4
BITMAP
00A0
0150
0540
0780
0040
0080
4050
D080
6F40
ENDCHAR
STARTCHAR h
ENCODING 104
SWIDTH 292 0
DWIDTH 5 0
BBX 10 14 0 0
BITMAP
0001A0
000410
001000
004000
004000
010000
010000
040000
040000
16C000
198000
254000
220000
524000
ENDCHAR
STARTCHAR i
ENCODING 105
SWIDTH 149 0
DWIDTH 3 0
BBX 4 8 0 0
BITMAP
01
04
00
14
20
20
50
60
ENDCHAR
STARTCHAR j
ENCODING 106
SWIDTH 136 0
DWIDTH 2 0
BBX 10 12 -6 -4
BITMAP
000010
000040
000000
000140
000200
000200
000500
000400
000400
001000
004000
550000
ENDCHAR
STARTCHAR k
ENCODING 107
SWIDTH 259 0
DWIDTH 5 0
BBX 10 14 0 0
BITMAP
0001A0
000410
001000
004000
010000
010000
040000
040000
040000
174000
254000
240000
580000
460000
ENDCHAR
STARTCHAR l
ENCODING 108
SWIDTH 134 0
DWIDTH 2 0
BBX 9 14 0 0
BITMAP
000640
001400
004000
004000
010000
010000
040000
040000
140000
200000
200000
500000
500000
500000
ENDCHAR
STARTCHAR m
ENCODING 109
SWIDTH 413 0
DWIDTH 7 0
BBX 7 5 0 0
BITMAP
265C
2898
2188
2214
4214
ENDCHAR
STARTCHAR n
ENCODING 110
SWIDTH 291 0
DWIDTH 5 0
BBX 5 5 0 0
BITMAP
2680
2980
2140
6200
4240
ENDCHAR
STARTCHAR o
ENCODING 111
SWIDTH 225 0
DWIDTH 4 0
BBX 4 5 0 0
BITMAP
0E
12
51
55
74
ENDCHAR
STARTCHAR p
ENCODING 112
SWIDTH 261 0
DWIDTH 5 0
BBX 6 9 -1 -4
BITMAP
0550
0410
0450
1580
2E00
2000
5000
4000
9000
ENDCHAR
STARTCHAR q
ENCODING 113
SWIDTH 269 0
DWIDTH 5 0
BBX 5 9 0 -4
BITMAP
0A80
2040
5100
8500
6400
0800
0800
1400
1800
ENDCHAR
STARTCHAR r
ENCODING 114
SWIDTH 195 0
DWIDTH 4 0
BBX 4 5 0 0
BITMAP
27
28
20
20
50
ENDCHAR
STARTCHAR s
ENCODING 115
SWIDTH 188 0
DWIDTH 3 0
BBX 4 5 0 0
BITMAP
15
20
14
48
94
ENDCHAR
STARTCHAR t
ENCODING 116
SWIDTH 171 0
DWIDTH 3 0
BBX 3 7 1 0
BITMAP
10
20
B8
80
80
40
90
ENDCHAR
STARTCHAR u
ENCODING 117
SWIDTH 299 0
DWIDTH 5 0
BBX 5 5 0 0
BITMAP
1480
2180
1240
5A00
7140
ENDCHAR
STARTCHAR v
ENCODING 118
SWIDTH 271 0
DWIDTH 5 0
BBX 4 5 1 0
BITMAP
96
51
85
84
90
ENDCHAR
STARTCHAR w
ENCODING 119
SWIDTH 369 0
DWIDTH 7 0
BBX 7 5 0 0
BITMAP
6124
2204
2614
2610
2280
ENDCHAR
STARTCHAR x
ENCODING 120
SWIDTH 263 0
DWIDTH 5 0
BBX 5 5 0 0
BITMAP
2680
1940
0800
1800
9600
ENDCHAR
STARTCHAR y
ENCODING 121
SWIDTH 280 0
DWIDTH 5 0
BBX 8 9 -3 -4
BITMAP
0052
0082
0049
0168
01D4
0010
4010
4040
9500
ENDCHAR
STARTCHAR z
ENCODING 122
SWIDTH 238 0
DWIDTH 4 0
BBX 4 5 0 0
BITMAP
1A
05
04
10
A9
ENDCHAR
STARTCHAR braceleft
ENCODING 123
SWIDTH 291 0
DWIDTH 5 0
BBX 5 13 1 -2
BITMAP
0140
0200
0500
0500
0800
1400
2000
1400
2000
2000
5000
5000
1400
ENDCHAR
STARTCHAR bar
ENCODING 124
SWIDTH 162 0
DWIDTH 3 0
BBX 1 16 1 -4
BITMAP
40
40
40
40
40
40
40
40
40
40
40
40
40
40
40
40
ENDCHAR
STARTCHAR braceright
ENCODING 125
SWIDTH 285 0
DWIDTH 5 0
BBX 6 13 0 -2
BITMAP
0090
0050
0080
0080
0140
0140
0080
0200
0500
0500
0800
0800
5000
ENDCHAR
STARTCHAR asciitilde
ENCODING 126
SWIDTH 383 0
DWIDTH 7 0
BBX 6 2 1 2
BITMAP
7850
4B80
ENDCHAR
STARTCHAR space.dup1
ENCODING 160
SWIDTH 150 0
DWIDTH 3 0
BBX 1 1 0 0
BITMAP
00
ENDCHAR
STARTCHAR exclamdown
ENCODING 161
SWIDTH 189 0
DWIDTH 3 0
BBX 5 10 -1 -5
BITMAP
0140
0200
0000
0400
0400
1400
2000
1000
8000
8000
ENDCHAR
STARTCHAR cent
ENCODING 162
SWIDTH 194 0
DWIDTH 3 0
BBX 4 8 0 -1
BITMAP
01
0A
18
54
A0
64
40
40
ENDCHAR
STARTCHAR sterling
ENCODING 163
SWIDTH 344 0
DWIDTH 6 0
BBX 6 6 0 0
BITMAP
0060
0110
0640
0800
1400
AA90
ENDCHAR
STARTCHAR currency
ENCODING 164
SWIDTH 344 0
DWIDTH 6 0
BBX 6 6 0 0
BITMAP
1010
0A80
1040
1040
1540
4040
ENDCHAR
STARTCHAR yen
ENCODING 165
SWIDTH 309 0
DWIDTH 6 0
BBX 6 6 0 0
BITMAP
1450
0400
2F00
0800
7E00
1400
ENDCHAR
STARTCHAR brokenbar
ENCODING 166
SWIDTH 162 0
DWIDTH 3 0
BBX 1 16 1 -4
BITMAP
40
40
40
40
40
40
00
00
00
00
40
40
40
40
40
40
ENDCHAR
STARTCHAR section
ENCODING 167
SWIDTH 395 0
DWIDTH 7 0
BBX 10 15 -1 -5
BITMAP
000140
001590
005010
016000
016000
016000
016000
009400
008800
008800
005800
405400
805000
A59000
150000
ENDCHAR
STARTCHAR dieresis
ENCODING 168
SWIDTH 174 0
DWIDTH 3 0
BBX 3 1 0 6
BITMAP
48
ENDCHAR
STARTCHAR copyright
ENCODING 169
SWIDTH 331 0
DWIDTH 6 0
BBX 5 5 1 2
BITMAP
1500
5140
5540
5400
0400
ENDCHAR
STARTCHAR ordfeminine
ENCODING 170
SWIDTH 226 0
DWIDTH 4 0
BBX 3 3 1 3
BITMAP
64
40
40
ENDCHAR
STARTCHAR guillemotleft
ENCODING 171
SWIDTH 289 0
DWIDTH 5 0
BBX 6 5 0 0
BITMAP
0550
1640
5D00
6B00
1740
ENDCHAR
STARTCHAR logicalnot
ENCODING 172
SWIDTH 265 0
DWIDTH 5 0
BBX 5 3 0 2
BITMAP
BF40
0200
0100
ENDCHAR
STARTCHAR registered
ENCODING 174
SWIDTH 331 0
DWIDTH 6 0
BBX 5 5 1 2
BITMAP
2A00
5440
5440
5500
5500
ENDCHAR
STARTCHAR degree
ENCODING 176
SWIDTH 104 0
DWIDTH 2 0
BBX 2 2 1 5
BITMAP
50
60
ENDCHAR
STARTCHAR plusminus
ENCODING 177
SWIDTH 301 0
DWIDTH 5 0
BBX 5 5 0 0
BITMAP
0100
0100
3F80
0400
5900
ENDCHAR
STARTCHAR twosuperior
ENCODING 178
SWIDTH 215 0
DWIDTH 4 0
BBX 3 3 1 3
BITMAP
14
10
50
ENDCHAR
STARTCHAR threesuperior
ENCODING 179
SWIDTH 190 0
DWIDTH 3 0
BBX 2 3 1 3
BITMAP
10
20
50
ENDCHAR
STARTCHAR acute
ENCODING 180
SWIDTH 157 0
DWIDTH 3 0
BBX 2 2 1 5
BITMAP
90
40
ENDCHAR
STARTCHAR mu
ENCODING 181
SWIDTH 324 0
DWIDTH 6 0
BBX 7 8 -1 -3
BITMAP
0214
0520
0860
0960
1A20
2000
2000
5000
ENDCHAR
STARTCHAR paragraph
ENCODING 182
SWIDTH 392 0
DWIDTH 7 0
BBX 10 10 -2 -4
BITMAP
000A90
007C80
00F940
01F600
00F200
006500
002400
405400
809000
660000
ENDCHAR
STARTCHAR periodcentered
ENCODING 183
SWIDTH 112 0
DWIDTH 2 0
BBX 2 1 0 2
BITMAP
50
ENDCHAR
STARTCHAR cedilla
ENCODING 184
SWIDTH 115 0
DWIDTH 2 0
BBX 1 2 1 -2
BITMAP
40
40
ENDCHAR
STARTCHAR onesuperior
ENCODING 185
SWIDTH 174 0
DWIDTH 3 0
BBX 2 3 1 3
BITMAP
90
40
40
ENDCHAR
STARTCHAR ordmasculine
ENCODING 186
SWIDTH 178 0
DWIDTH 3 0
BBX 2 3 1 3
BITMAP
A0
40
40
ENDCHAR
STARTCHAR guillemotright
ENCODING 187
SWIDTH 276 0
DWIDTH 5 0
BBX 5 5 0 0
BITMAP
6500
2600
0540
1500
5400
ENDCHAR
STARTCHAR onequarter
ENCODING 188
SWIDTH 435 0
DWIDTH 8 0
BBX 7 7 1 -1
BITMAP
1410
1040
1104
4460
11D0
5040
4000
ENDCHAR
STARTCHAR onehalf
ENCODING 189
SWIDTH 434 0
DWIDTH 8 0
BBX 7 7 1 -1
BITMAP
1410
1040
1154
4404
1010
5190
4000
ENDCHAR
STARTCHAR threequarters
ENCODING 190
SWIDTH 476 0
DWIDTH 9 0
BBX 7 7 1 -1
BITMAP
1414
1410
0444
5114
0464
1010
1000
ENDCHAR
STARTCHAR questiondown
ENCODING 191
SWIDTH 285 0
DWIDTH 5 0
BBX 6 10 -1 -5
BITMAP
0020
0020
0000
0080
0040
0400
5000
8000
8100
6800
ENDCHAR
STARTCHAR Agrave
ENCODING 192
SWIDTH 996 0
DWIDTH 18 0
BBX 17 13 1 0
BITMAP
0000000140
00001AA900
00004006C0
0000000640
0001001900
0000006100
0000004400
0000A10400
00006FF800
4000140800
4000401400
8005001840
6A50000A00
ENDCHAR
STARTCHAR Aacute
ENCODING 193
SWIDTH 996 0
DWIDTH 18 0
BBX 18 14 1 0
BITMAP
0000000090
0000000140
00001AA900
00004006C0
0000000640
0001001900
0000006100
0000004400
0000A10400
00006FF800
4000140800
4000401400
8005001840
6A50000A00
ENDCHAR
STARTCHAR Acircumflex
ENCODING 194
SWIDTH 996 0
DWIDTH 18 0
BBX 18 15 1 0
BITMAP
0000000040
00000002E0
0000000000
00001AA900
00004006C0
0000000640
0001001900
0000006100
0000004400
0000A10400
00006FF800
4000140800
4000401400
8005001840
6A50000A00
ENDCHAR
STARTCHAR Atilde
ENCODING 195
SWIDTH 996 0
DWIDTH 18 0
BBX 18 13 1 0
BITMAP
0000000190
00001AA900
00004006C0
0000000640
0001001900
0000006100
0000004400
0000A10400
00006FF800
4000140800
4000401400
8005001840
6A50000A00
ENDCHAR
STARTCHAR Adieresis
ENCODING 196
SWIDTH 996 0
DWIDTH 18 0
BBX 18 13 1 0
BITMAP
0000000150
00001AA900
00004006C0
0000000640
0001001900
0000006100
0000004400
0000A10400
00006FF800
4000140800
4000401400
8005001840
6A50000A00
ENDCHAR
STARTCHAR Aring
ENCODING 197
SWIDTH 996 0
DWIDTH 18 0
BBX 17 13 1 0
BITMAP
0000000040
00001AA900
00004006C0
0000000640
0001001900
0000006100
0000004400
0000A10400
00006FF800
4000140800
4000401400
8005001840
6A50000A00
ENDCHAR
STARTCHAR AE
ENCODING 198
SWIDTH 1271 0
DWIDTH 23 0
BBX 23 12 1 0
BITMAP
00001AA90564
00004006D404
000000066000
000100191800
000000615900
000000424000
000065050000
00002FFC0000
400014080000
400040080010
8005000A0080
6A5000029540
ENDCHAR
STARTCHAR Ccedilla
ENCODING 199
SWIDTH 557 0
DWIDTH 10 0
BBX 10 14 1 -2
BITMAP
0055A0
010010
040000
200000
500000
900000
900000
900000
A00040
700040
1D0600
069400
004000
004000
ENDCHAR
STARTCHAR Egrave
ENCODING 200
SWIDTH 463 0
DWIDTH 8 0
BBX 9 14 0 0
BITMAP
000400
000500
001580
004040
014000
009000
01B000
050000
200000
600000
500000
600100
200100
195400
ENDCHAR
STARTCHAR Eacute
ENCODING 201
SWIDTH 463 0
DWIDTH 8 0
BBX 9 13 0 0
BITMAP
000500
001580
004040
014000
009000
01B000
050000
200000
600000
500000
600100
200100
195400
ENDCHAR
STARTCHAR Ecircumflex
ENCODING 202
SWIDTH 463 0
DWIDTH 8 0
BBX 9 14 0 0
BITMAP
000B40
000000
001580
004040
014000
009000
01B000
050000
200000
600000
500000
600100
200100
195400
ENDCHAR
STARTCHAR Edieresis
ENCODING 203
SWIDTH 463 0
DWIDTH 8 0
BBX 9 13 0 0
BITMAP
000540
001580
004040
014000
009000
01B000
050000
200000
600000
500000
600100
200100
195400
ENDCHAR
STARTCHAR Igrave
ENCODING 204
SWIDTH 514 0
DWIDTH 9 0
BBX 13 14 0 0
BITMAP
00001000
00000000
00001A40
0000A400
00024400
00041000
00042000
00102000
00105000
00004000
50004000
80050000
90640000
2F900000
ENDCHAR
STARTCHAR Iacute
ENCODING 205
SWIDTH 514 0
DWIDTH 9 0
BBX 13 14 0 0
BITMAP
00001900
00000000
00001A40
0000A400
00024400
00041000
00042000
00102000
00105000
00004000
50004000
80050000
90640000
2F900000
ENDCHAR
STARTCHAR Icircumflex
ENCODING 206
SWIDTH 514 0
DWIDTH 9 0
BBX 13 15 0 0
BITMAP
00000400
00001E00
00000000
00001A40
0000A400
00024400
00041000
00042000
00102000
00105000
00004000
50004000
80050000
90640000
2F900000
ENDCHAR
STARTCHAR Idieresis
ENCODING 207
SWIDTH 514 0
DWIDTH 9 0
BBX 13 13 0 0
BITMAP
00001500
00001A40
0000A400
00024400
00041000
00042000
00102000
00105000
00004000
50004000
80050000
90640000
2F900000
ENDCHAR
STARTCHAR Eth
ENCODING 208
SWIDTH 800 0
DWIDTH 14 0
BBX 15 12 0 0
BITMAP
00569500
01002900
01005240
00008080
00014020
00020020
003FF424
00020014
00050010
00080010
16A00000
55555400
ENDCHAR
STARTCHAR Ntilde
ENCODING 209
SWIDTH 796 0
DWIDTH 14 0
BBX 23 13 -3 0
BITMAP
000000065000
0006A50000B4
001009000204
000007400400
000004C00400
000004601000
000004241000
000010184000
100010094000
400040064000
900140034000
600500024000
1AA000010000
ENDCHAR
STARTCHAR Ograve
ENCODING 210
SWIDTH 608 0
DWIDTH 11 0
BBX 11 14 1 0
BITMAP
000500
000000
006F80
0240B0
080024
100018
100008
500008
800004
800010
900010
600080
290600
0BE400
ENDCHAR
STARTCHAR Oacute
ENCODING 211
SWIDTH 608 0
DWIDTH 11 0
BBX 11 15 1 0
BITMAP
000100
000500
000000
006F80
0240B0
080024
100018
100008
500008
800004
800010
900010
600080
290600
0BE400
ENDCHAR
STARTCHAR Ocircumflex
ENCODING 212
SWIDTH 608 0
DWIDTH 11 0
BBX 11 14 1 0
BITMAP
000640
000000
006F80
0240B0
080024
100018
100008
500008
800004
800010
900010
600080
290600
0BE400
ENDCHAR
STARTCHAR Otilde
ENCODING 213
SWIDTH 608 0
DWIDTH 11 0
BBX 11 13 1 0
BITMAP
001900
006F80
0240B0
080024
100018
100008
500008
800004
800010
900010
600080
290600
0BE400
ENDCHAR
STARTCHAR Odieresis
ENCODING 214
SWIDTH 608 0
DWIDTH 11 0
BBX 11 14 1 0
BITMAP
000500
000000
006F80
0240B0
080024
100018
100008
500008
800004
800010
900010
600080
290600
0BE400
ENDCHAR
STARTCHAR multiply
ENCODING 215
SWIDTH 301 0
DWIDTH 5 0
BBX 4 5 1 0
BITMAP
12
14
14
14
84
ENDCHAR
STARTCHAR Oslash
ENCODING 216
SWIDTH 605 0
DWIDTH 11 0
BBX 11 12 1 0
BITMAP
006F50
024150
080014
100008
200008
500008
800014
800020
900020
600080
290600
1BE400
ENDCHAR
STARTCHAR Ugrave
ENCODING 217
SWIDTH 717 0
DWIDTH 13 0
BBX 15 13 0 0
BITMAP
00001800
01AA0014
04010020
10040050
00100080
40400140
40800300
00400600
01401A00
02002500
02008800
02864840
01F80640
ENDCHAR
STARTCHAR Uacute
ENCODING 218
SWIDTH 717 0
DWIDTH 13 0
BBX 15 13 0 0
BITMAP
00000600
01AA0014
04010020
10040050
00100080
40400140
40800300
00400600
01401A00
02002500
02008800
02864840
01F80640
ENDCHAR
STARTCHAR Ucircumflex
ENCODING 219
SWIDTH 718 0
DWIDTH 13 0
BBX 15 14 0 0
BITMAP
00000500
00001240
01AA0014
04010020
10040050
00100080
40400140
40800300
00400600
01401A00
02002500
02008800
02864840
01F80640
ENDCHAR
STARTCHAR Udieresis
ENCODING 220
SWIDTH 718 0
DWIDTH 13 0
BBX 15 13 0 0
BITMAP
00000500
01AA0014
04010020
10040050
00100080
40400140
40800300
00400600
01401A00
02002500
02008800
02864840
01F80640
ENDCHAR
STARTCHAR Yacute
ENCODING 221
SWIDTH 662 0
DWIDTH 12 0
BBX 16 15 0 -2
BITMAP
00000140
00064005
00114008
00014018
00020020
00020060
00050080
01080240
14080600
50082400
800B9000
80001000
90004000
74050000
1FE40000
ENDCHAR
STARTCHAR Thorn
ENCODING 222
SWIDTH 745 0
DWIDTH 13 0
BBX 13 12 1 0
BITMAP
00000100
00000400
00001400
00017E00
00042280
000050C0
00008080
00018040
40024100
4005A400
80040000
69500000
ENDCHAR
STARTCHAR germandbls
ENCODING 223
SWIDTH 304 0
DWIDTH 5 0
BBX 16 17 -6 -4
BITMAP
00000155
00000106
00000005
00000018
00000060
00004280
00004D00
00006400
00012000
00011000
00010400
00040800
0004B400
00040000
00100000
00000000
55000000
ENDCHAR
STARTCHAR agrave
ENCODING 224
SWIDTH 294 0
DWIDTH 5 0
BBX 5 7 0 0
BITMAP
0100
0040
0B80
2440
5200
5600
7640
ENDCHAR
STARTCHAR aacute
ENCODING 225
SWIDTH 294 0
DWIDTH 5 0
BBX 5 7 0 0
BITMAP
0080
0140
0B80
2440
5200
5600
7640
ENDCHAR
STARTCHAR acircumflex
ENCODING 226
SWIDTH 294 0
DWIDTH 5 0
BBX 5 8 0 0
BITMAP
0140
0140
0000
0B80
2440
5200
5600
7640
ENDCHAR
STARTCHAR atilde
ENCODING 227
SWIDTH 294 0
DWIDTH 5 0
BBX 6 7 0 0
BITMAP
0610
0680
0B80
2440
5200
5600
7640
ENDCHAR
STARTCHAR adieresis
ENCODING 228
SWIDTH 284 0
DWIDTH 5 0
BBX 5 7 0 0
BITMAP
0580
0000
0B80
2440
5200
5600
7640
ENDCHAR
STARTCHAR aring
ENCODING 229
SWIDTH 294 0
DWIDTH 5 0
BBX 5 7 0 0
BITMAP
0140
0240
0B80
2440
5200
5600
7640
ENDCHAR
STARTCHAR ae
ENCODING 230
SWIDTH 363 0
DWIDTH 7 0
BBX 7 5 0 0
BITMAP
0AB4
2154
5200
5600
6590
ENDCHAR
STARTCHAR ccedilla
ENCODING 231
SWIDTH 203 0
DWIDTH 4 0
BBX 4 7 0 -2
BITMAP
01
10
50
50
64
10
10
ENDCHAR
STARTCHAR egrave
ENCODING 232
SWIDTH 206 0
DWIDTH 4 0
BBX 4 7 0 0
BITMAP
04
00
1A
11
50
50
64
ENDCHAR
STARTCHAR eacute
ENCODING 233
SWIDTH 206 0
DWIDTH 4 0
BBX 5 7 0 0
BITMAP
0240
0100
1A00
1100
5000
5000
6400
ENDCHAR
STARTCHAR ecircumflex
ENCODING 234
SWIDTH 206 0
DWIDTH 4 0
BBX 4 8 0 0
BITMAP
05
05
00
1A
11
50
50
64
ENDCHAR
STARTCHAR edieresis
ENCODING 235
SWIDTH 206 0
DWIDTH 4 0
BBX 5 7 0 0
BITMAP
0940
0000
1A00
1100
5000
5000
6400
ENDCHAR
STARTCHAR igrave
ENCODING 236
SWIDTH 149 0
DWIDTH 3 0
BBX 4 7 0 0
BITMAP
14
01
14
20
20
50
60
ENDCHAR
STARTCHAR iacute
ENCODING 237
SWIDTH 149 0
DWIDTH 3 0
BBX 4 7 0 0
BITMAP
02
04
14
20
20
50
60
ENDCHAR
STARTCHAR icircumflex
ENCODING 238
SWIDTH 149 0
DWIDTH 3 0
BBX 4 8 0 0
BITMAP
04
15
00
14
20
20
50
60
ENDCHAR
STARTCHAR idieresis
ENCODING 239
SWIDTH 149 0
DWIDTH 3 0
BBX 4 7 0 0
BITMAP
16
00
14
20
20
50
60
ENDCHAR
STARTCHAR eth
ENCODING 240
SWIDTH 234 0
DWIDTH 4 0
BBX 4 12 0 0
BITMAP
10
20
24
18
15
02
02
0A
11
51
51
64
ENDCHAR
STARTCHAR ntilde
ENCODING 241
SWIDTH 291 0
DWIDTH 5 0
BBX 6 7 0 0
BITMAP
0610
0680
2680
2980
2140
6200
4240
ENDCHAR
STARTCHAR ograve
ENCODING 242
SWIDTH 225 0
DWIDTH 4 0
BBX 5 7 0 0
BITMAP
0500
0040
0E00
1200
5100
5500
7400
ENDCHAR
STARTCHAR oacute
ENCODING 243
SWIDTH 225 0
DWIDTH 4 0
BBX 5 7 0 0
BITMAP
0140
0100
0E00
1200
5100
5500
7400
ENDCHAR
STARTCHAR ocircumflex
ENCODING 244
SWIDTH 225 0
DWIDTH 4 0
BBX 5 8 0 0
BITMAP
0100
0540
0000
0E00
1200
5100
5500
7400
ENDCHAR
STARTCHAR otilde
ENCODING 245
SWIDTH 225 0
DWIDTH 4 0
BBX 5 7 0 0
BITMAP
0940
1740
0E00
1200
5100
5500
7400
ENDCHAR
STARTCHAR odieresis
ENCODING 246
SWIDTH 225 0
DWIDTH 4 0
BBX 5 7 0 0
BITMAP
0940
0000
0E00
1200
5100
5500
7400
ENDCHAR
STARTCHAR divide
ENCODING 247
SWIDTH 301 0
DWIDTH 5 0
BBX 4 5 1 0
BITMAP
04
00
55
00
10
ENDCHAR
STARTCHAR oslash
ENCODING 248
SWIDTH 225 0
DWIDTH 4 0
BBX 4 5 0 0
BITMAP
0E
26
55
51
64
ENDCHAR
STARTCHAR ugrave
ENCODING 249
SWIDTH 299 0
DWIDTH 5 0
BBX 5 7 0 0
BITMAP
0100
0040
1480
2180
1240
5A00
7140
ENDCHAR
STARTCHAR uacute
ENCODING 250
SWIDTH 299 0
DWIDTH 5 0
BBX 6 7 0 0
BITMAP
0090
0040
1480
2180
1240
5A00
7140
ENDCHAR
STARTCHAR ucircumflex
ENCODING 251
SWIDTH 299 0
DWIDTH 5 0
BBX 5 8 0 0
BITMAP
0140
0140
0000
1480
2180
1240
5A00
7140
ENDCHAR
STARTCHAR udieresis
ENCODING 252
SWIDTH 299 0
DWIDTH 5 0
BBX 5 7 0 0
BITMAP
0180
0000
1480
2180
1240
5A00
7140
ENDCHAR
STARTCHAR yacute
ENCODING 253
SWIDTH 280 0
DWIDTH 5 0
BBX 9 11 -3 -4
BITMAP
000240
000100
005200
008200
004900
016800
01D400
001000
401000
404000
950000
ENDCHAR
STARTCHAR thorn
ENCODING 254
SWIDTH 261 0
DWIDTH 5 0
BBX 6 13 -1 -4
BITMAP
0080
0040
0100
0200
0590
0810
0450
1580
2E00
2000
5000
4000
9000
ENDCHAR
STARTCHAR ydieresis
ENCODING 255
SWIDTH 280 0
DWIDTH 5 0
BBX 8 11 -3 -4
BITMAP
0016
0000
0052
0082
0049
0168
01D4
0010
4010
4040
9500
ENDCHAR
STARTCHAR dotlessi
ENCODING 305
SWIDTH 149 0
DWIDTH 3 0
BBX 3 5 0 0
BITMAP
14
20
20
50
60
ENDCHAR
STARTCHAR Lslash
ENCODING 321
SWIDTH 657 0
DWIDTH 12 0
BBX 13 12 0 0
BITMAP
00000B80
00001080
00004040
00014000
00015000
00174000
00050000
00080000
00080000
05540000
50B50400
7E5BE400
ENDCHAR
STARTCHAR lslash
ENCODING 322
SWIDTH 134 0
DWIDTH 2 0
BBX 9 14 0 0
BITMAP
000640
001400
004000
004000
010000
010000
180000
040000
140000
200000
200000
100000
500000
500000
ENDCHAR
STARTCHAR OE
ENCODING 338
SWIDTH 827 0
DWIDTH 15 0
BBX 15 12 1 0
BITMAP
006F8564
0240B004
08002000
10002800
10001E00
50015000
80020000
80080000
900C0000
60080010
29090040
0BE69540
ENDCHAR
STARTCHAR oe
ENCODING 339
SWIDTH 345 0
DWIDTH 6 0
BBX 6 5 0 0
BITMAP
0EB0
2350
5200
4200
6690
ENDCHAR
STARTCHAR Scaron
ENCODING 352
SWIDTH 480 0
DWIDTH 9 0
BBX 9 14 1 0
BITMAP
000900
000000
002E00
008140
008140
008000
005000
002000
001800
000800
400500
800400
800400
695000
ENDCHAR
STARTCHAR scaron
ENCODING 353
SWIDTH 188 0
DWIDTH 3 0
BBX 4 8 0 0
BITMAP
05
01
00
15
20
14
48
94
ENDCHAR
STARTCHAR Ydieresis
ENCODING 376
SWIDTH 662 0
DWIDTH 12 0
BBX 16 15 0 -2
BITMAP
00000540
00064005
00114008
00014018
00020020
00020060
00050080
01080240
14080600
50082400
800B9000
80001000
90004000
74050000
1FE40000
ENDCHAR
STARTCHAR Zcaron
ENCODING 381
SWIDTH 625 0
DWIDTH 11 0
BBX 12 15 1 0
BITMAP
000100
000190
000000
002F91
00506D
000000
000000
000000
000000
000000
000000
000000
000010
2A4040
46FE00
ENDCHAR
STARTCHAR zcaron
ENCODING 382
SWIDTH 248 0
DWIDTH 4 0
BBX 4 8 0 0
BITMAP
04
01
00
1A
05
04
10
A9
ENDCHAR
STARTCHAR florin
ENCODING 402
SWIDTH 214 0
DWIDTH 4 0
BBX 7 8 -2 -2
BITMAP
0074
0080
0140
07E0
0200
0100
0400
5400
ENDCHAR
STARTCHAR circumflex
ENCODING 710
SWIDTH 196 0
DWIDTH 4 0
BBX 2 2 1 6
BITMAP
40
10
ENDCHAR
STARTCHAR caron
ENCODING 711
SWIDTH 196 0
DWIDTH 4 0
BBX 3 2 0 6
BITMAP
40
14
ENDCHAR
STARTCHAR breve
ENCODING 728
SWIDTH 198 0
DWIDTH 4 0
BBX 3 2 0 6
BITMAP
40
24
ENDCHAR
STARTCHAR dotaccent
ENCODING 729
SWIDTH 89 0
DWIDTH 2 0
BBX 1 1 0 6
BITMAP
40
ENDCHAR
STARTCHAR ring
ENCODING 730
SWIDTH 117 0
DWIDTH 2 0
BBX 2 2 0 5
BITMAP
10
50
ENDCHAR
STARTCHAR ogonek
ENCODING 731
SWIDTH 124 0
DWIDTH 2 0
BBX 2 2 0 -2
BITMAP
50
50
ENDCHAR
STARTCHAR tilde
ENCODING 732
SWIDTH 222 0
DWIDTH 4 0
BBX 4 2 0 5
BITMAP
21
5C
ENDCHAR
STARTCHAR hungarumlaut
ENCODING 733
SWIDTH 253 0
DWIDTH 5 0
BBX 4 2 0 5
BITMAP
26
55
ENDCHAR
STARTCHAR mu.dup2
ENCODING 956
SWIDTH 324 0
DWIDTH 6 0
BBX 7 8 -1 -3
BITMAP
0214
0520
0860
0960
1A20
2000
2000
5000
ENDCHAR
STARTCHAR endash
ENCODING 8211
SWIDTH 500 0
DWIDTH 9 0
BBX 9 1 0 2
BITMAP
BFFF80
ENDCHAR
STARTCHAR emdash
ENCODING 8212
SWIDTH 1000 0
DWIDTH 18 0
BBX 18 1 0 2
BITMAP
BFFFFFFFE0
ENDCHAR
STARTCHAR quoteleft
ENCODING 8216
SWIDTH 87 0
DWIDTH 2 0
BBX 1 2 1 5
BITMAP
40
80
ENDCHAR
STARTCHAR quoteright
ENCODING 8217
SWIDTH 87 0
DWIDTH 2 0
BBX 2 2 1 5
BITMAP
50
40
ENDCHAR
STARTCHAR quotesinglbase
ENCODING 8218
SWIDTH 112 0
DWIDTH 2 0
BBX 1 1 1 0
BITMAP
40
ENDCHAR
STARTCHAR quotedblleft
ENCODING 8220
SWIDTH 167 0
DWIDTH 3 0
BBX 3 2 1 5
BITMAP
54
90
ENDCHAR
STARTCHAR quotedblright
ENCODING 8221
SWIDTH 167 0
DWIDTH 3 0
BBX 3 2 1 5
BITMAP
58
44
ENDCHAR
STARTCHAR quotedblbase
ENCODING 8222
SWIDTH 192 0
DWIDTH 3 0
BBX 3 2 0 -1
BITMAP
18
54
ENDCHAR
STARTCHAR dagger
ENCODING 8224
SWIDTH 185 0
DWIDTH 3 0
BBX 5 11 0 -2
BITMAP
0100
0400
0400
7E40
0400
1000
1000
1000
1000
4000
4000
ENDCHAR
STARTCHAR daggerdbl
ENCODING 8225
SWIDTH 185 0
DWIDTH 3 0
BBX 5 11 0 -2
BITMAP
0100
0400
0400
2F40
0400
1000
1000
B900
1000
4000
4000
ENDCHAR
STARTCHAR bullet
ENCODING 8226
SWIDTH 207 0
DWIDTH 4 0
BBX 2 2 1 2
BITMAP
B0
E0
ENDCHAR
STARTCHAR ellipsis
ENCODING 8230
SWIDTH 376 0
DWIDTH 7 0
BBX 6 1 0 0
BITMAP
5210
ENDCHAR
STARTCHAR perthousand
ENCODING 8240
SWIDTH 571 0
DWIDTH 10 0
BBX 10 8 0 -1
BITMAP
000400
2C1000
544000
815050
014960
044510
109240
100000
ENDCHAR
STARTCHAR guilsinglleft
ENCODING 8249
SWIDTH 189 0
DWIDTH 3 0
BBX 4 5 0 0
BITMAP
05
14
50
60
14
ENDCHAR
STARTCHAR guilsinglright
ENCODING 8250
SWIDTH 176 0
DWIDTH 3 0
BBX 3 5 0 0
BITMAP
60
24
04
10
40
ENDCHAR
STARTCHAR fraction
ENCODING 8260
SWIDTH 220 0
DWIDTH 4 0
BBX 6 7 0 -1
BITMAP
0050
0040
0100
0400
1000
4000
4000
ENDCHAR
STARTCHAR Euro
ENCODING 8364
SWIDTH 360 0
DWIDTH 6 0
BBX 6 6 0 0
BITMAP
0010
1000
7F00
2000
6000
1140
ENDCHAR
STARTCHAR trademark
ENCODING 8482
SWIDTH 389 0
DWIDTH 7 0
BBX 6 3 1 3
BITMAP
5110
4540
4100
ENDCHAR
STARTCHAR minus
ENCODING 8722
SWIDTH 301 0
DWIDTH 5 0
BBX 4 1 1 2
BITMAP
FE
ENDCHAR
STARTCHAR fi
ENCODING 64257
SWIDTH 297 0
DWIDTH 5 0
BBX 15 18 -5 -4
BITMAP
000001A4
00000404
00000400
00001000
00004000
00008000
00014400
00020400
00020000
001FF000
00051000
00085000
00088000
00109000
00100000
00400000
01000000
94000000
ENDCHAR
STARTCHAR fl
ENCODING 64258
SWIDTH 290 0
DWIDTH 5 0
BBX 17 18 -5 -4
BITMAP
0000005640
0000056000
0000144000
0000100000
0000410000
0000800000
0001440000
0002040000
0002100000
000FE00000
0005100000
0008500000
0004800000
0010A00000
0010000000
0040000000
0100000000
9400000000
ENDCHAR
STARTCHAR .notdef
ENCODING -1
SWIDTH 150 0
DWIDTH 3 0
BBX 1 1 0 0
BITMAP
00
ENDCHAR
STARTCHAR .null
ENCODING -1
SWIDTH 0 0
DWIDTH 0 0
BBX 1 1 0 0
BITMAP
00
ENDCHAR
STARTCHAR nonmarkingreturn
ENCODING -1
SWIDTH 150 0
DWIDTH 3 0
BBX 1 1 0 0
BITMAP
00
ENDCHAR
ENDFONT
